<svg width="11" height="14" viewBox="0 0 11 14" fill="none" xmlns="http://www.w3.org/2000/svg">
<path d="M10.197 3.93392C10.449 3.68192 10.5877 3.34725 10.5877 2.99125C10.5877 2.63525 10.449 2.30059 10.197 2.04859L9.13966 0.991253C8.88766 0.739253 8.55299 0.600586 8.19699 0.600586C7.84099 0.600586 7.50633 0.739253 7.25499 0.990586L0.166992 8.05659V10.9999H3.10899L10.197 3.93392ZM8.19699 1.93392L9.25499 2.99059L8.19499 4.04659L7.13766 2.98992L8.19699 1.93392ZM1.50033 9.66659V8.60992L6.19366 3.93125L7.25099 4.98859L2.55833 9.66659H1.50033ZM0.166992 12.3333H10.8337V13.6666H0.166992V12.3333Z" fill="black"/>
</svg>
