<svg width="11" height="14" viewBox="0 0 11 14" fill="none" xmlns="http://www.w3.org/2000/svg">
<path d="M10.1967 3.9349C10.4487 3.6829 10.5874 3.34823 10.5874 2.99223C10.5874 2.63623 10.4487 2.30156 10.1967 2.04956L9.13941 0.992229C8.88741 0.740229 8.55275 0.601562 8.19675 0.601562C7.84075 0.601562 7.50608 0.740229 7.25475 0.991563L0.166748 8.05756V11.0009H3.10875L10.1967 3.9349ZM8.19675 1.9349L9.25475 2.99156L8.19475 4.04756L7.13741 2.9909L8.19675 1.9349ZM1.50008 9.66756V8.6109L6.19341 3.93223L7.25075 4.98956L2.55808 9.66756H1.50008ZM0.166748 12.3342H10.8334V13.6676H0.166748V12.3342Z" fill="white"/>
</svg>
