<svg width="33" height="28" viewBox="0 0 33 28" fill="none" xmlns="http://www.w3.org/2000/svg">
<path d="M0.503998 4C0.503998 2.93913 0.925425 1.92172 1.67557 1.17157C2.42572 0.421427 3.44313 0 4.504 0H28.504C29.5649 0 30.5823 0.421427 31.3324 1.17157C32.0826 1.92172 32.504 2.93913 32.504 4V24C32.504 25.0609 32.0826 26.0783 31.3324 26.8284C30.5823 27.5786 29.5649 28 28.504 28H4.504C3.44313 28 2.42572 27.5786 1.67557 26.8284C0.925425 26.0783 0.503998 25.0609 0.503998 24V4ZM2.504 22V24C2.504 24.5304 2.71471 25.0391 3.08978 25.4142C3.46486 25.7893 3.97356 26 4.504 26H28.504C29.0344 26 29.5431 25.7893 29.9182 25.4142C30.2933 25.0391 30.504 24.5304 30.504 24V17L22.95 13.106C22.7624 13.012 22.5501 12.9795 22.343 13.0128C22.1359 13.0462 21.9445 13.1439 21.796 13.292L14.376 20.712L9.056 17.168C8.86392 17.0401 8.63352 16.9826 8.40387 17.0052C8.17423 17.0278 7.95946 17.1291 7.796 17.292L2.504 22ZM12.504 9C12.504 8.20435 12.1879 7.44129 11.6253 6.87868C11.0627 6.31607 10.2996 6 9.504 6C8.70835 6 7.94529 6.31607 7.38268 6.87868C6.82007 7.44129 6.504 8.20435 6.504 9C6.504 9.79565 6.82007 10.5587 7.38268 11.1213C7.94529 11.6839 8.70835 12 9.504 12C10.2996 12 11.0627 11.6839 11.6253 11.1213C12.1879 10.5587 12.504 9.79565 12.504 9Z" fill="black"/>
</svg>
