<svg width="13" height="12" viewBox="0 0 13 12" fill="none" xmlns="http://www.w3.org/2000/svg">
<path d="M11.9165 10.5C11.9165 10.5 12.6665 10.5 12.6665 9.75C12.6665 9 11.9165 6.75 8.9165 6.75C5.9165 6.75 5.1665 9 5.1665 9.75C5.1665 10.5 5.9165 10.5 5.9165 10.5H11.9165ZM5.933 9.75C5.92746 9.74924 5.92196 9.74824 5.9165 9.747C5.91725 9.549 6.04175 8.9745 6.4865 8.457C6.9005 7.97175 7.628 7.5 8.9165 7.5C10.2043 7.5 10.9318 7.9725 11.3465 8.457C11.7913 8.9745 11.915 9.54975 11.9165 9.747L11.9105 9.7485C11.907 9.74909 11.9035 9.74959 11.9 9.75H5.933V9.75ZM8.9165 5.25C9.31433 5.25 9.69586 5.09196 9.97716 4.81066C10.2585 4.52936 10.4165 4.14782 10.4165 3.75C10.4165 3.35218 10.2585 2.97064 9.97716 2.68934C9.69586 2.40804 9.31433 2.25 8.9165 2.25C8.51868 2.25 8.13715 2.40804 7.85584 2.68934C7.57454 2.97064 7.4165 3.35218 7.4165 3.75C7.4165 4.14782 7.57454 4.52936 7.85584 4.81066C8.13715 5.09196 8.51868 5.25 8.9165 5.25ZM11.1665 3.75C11.1665 4.04547 11.1083 4.33806 10.9952 4.61104C10.8822 4.88402 10.7164 5.13206 10.5075 5.34099C10.2986 5.54992 10.0505 5.71566 9.77754 5.82873C9.50456 5.9418 9.21198 6 8.9165 6C8.62103 6 8.32845 5.9418 8.05547 5.82873C7.78248 5.71566 7.53445 5.54992 7.32551 5.34099C7.11658 5.13206 6.95085 4.88402 6.83777 4.61104C6.7247 4.33806 6.6665 4.04547 6.6665 3.75C6.6665 3.15326 6.90356 2.58097 7.32551 2.15901C7.74747 1.73705 8.31977 1.5 8.9165 1.5C9.51324 1.5 10.0855 1.73705 10.5075 2.15901C10.9295 2.58097 11.1665 3.15326 11.1665 3.75V3.75ZM5.8685 6.96C5.56849 6.86553 5.25923 6.80343 4.946 6.77475C4.77 6.75801 4.5933 6.74975 4.4165 6.75C1.4165 6.75 0.666504 9 0.666504 9.75C0.666504 10.2502 0.916254 10.5 1.4165 10.5H4.5785C4.46732 10.2659 4.41187 10.0092 4.4165 9.75C4.4165 8.9925 4.69925 8.2185 5.234 7.572C5.41625 7.3515 5.6285 7.14525 5.8685 6.96ZM4.3565 7.5C3.91262 8.16695 3.67283 8.94886 3.6665 9.75H1.4165C1.4165 9.555 1.5395 8.9775 1.9865 8.457C2.39525 7.98 3.1055 7.515 4.3565 7.50075V7.5ZM1.7915 4.125C1.7915 3.52826 2.02856 2.95597 2.45051 2.53401C2.87247 2.11205 3.44477 1.875 4.0415 1.875C4.63824 1.875 5.21054 2.11205 5.63249 2.53401C6.05445 2.95597 6.2915 3.52826 6.2915 4.125C6.2915 4.72174 6.05445 5.29403 5.63249 5.71599C5.21054 6.13795 4.63824 6.375 4.0415 6.375C3.44477 6.375 2.87247 6.13795 2.45051 5.71599C2.02856 5.29403 1.7915 4.72174 1.7915 4.125V4.125ZM4.0415 2.625C3.64368 2.625 3.26215 2.78304 2.98084 3.06434C2.69954 3.34564 2.5415 3.72718 2.5415 4.125C2.5415 4.52282 2.69954 4.90436 2.98084 5.18566C3.26215 5.46696 3.64368 5.625 4.0415 5.625C4.43933 5.625 4.82086 5.46696 5.10216 5.18566C5.38347 4.90436 5.5415 4.52282 5.5415 4.125C5.5415 3.72718 5.38347 3.34564 5.10216 3.06434C4.82086 2.78304 4.43933 2.625 4.0415 2.625Z" fill="black"/>
</svg>
