<svg width="14" height="8" viewBox="0 0 14 8" fill="none" xmlns="http://www.w3.org/2000/svg">
<path fill-rule="evenodd" clip-rule="evenodd" d="M6.64614 0.645917C6.69259 0.599354 6.74776 0.562411 6.80851 0.537204C6.86926 0.511998 6.93438 0.499023 7.00014 0.499023C7.06591 0.499023 7.13103 0.511998 7.19178 0.537204C7.25252 0.562411 7.3077 0.599354 7.35414 0.645917L13.3541 6.64592C13.448 6.7398 13.5008 6.86714 13.5008 6.99992C13.5008 7.13269 13.448 7.26003 13.3541 7.35392C13.2603 7.4478 13.1329 7.50055 13.0001 7.50055C12.8674 7.50055 12.74 7.4478 12.6461 7.35392L7.00014 1.70692L1.35414 7.35392C1.26026 7.4478 1.13292 7.50055 1.00014 7.50055C0.867368 7.50055 0.74003 7.4478 0.646143 7.35392C0.552257 7.26003 0.499512 7.13269 0.499512 6.99992C0.499512 6.86714 0.552257 6.7398 0.646143 6.64592L6.64614 0.645917Z" fill="black"/>
</svg>
