<svg width="26" height="19" viewBox="0 0 26 19" fill="none" xmlns="http://www.w3.org/2000/svg">
<g filter="url(#filter0_d_5029_8609)">
<path d="M10 9.75C10 9.55109 10.079 9.36032 10.2197 9.21967C10.3603 9.07902 10.5511 9 10.75 9H15.25C15.4489 9 15.6397 9.07902 15.7803 9.21967C15.921 9.36032 16 9.55109 16 9.75C16 9.94891 15.921 10.1397 15.7803 10.2803C15.6397 10.421 15.4489 10.5 15.25 10.5H10.75C10.5511 10.5 10.3603 10.421 10.2197 10.2803C10.079 10.1397 10 9.94891 10 9.75ZM7 5.25C7 5.05109 7.07902 4.86032 7.21967 4.71967C7.36032 4.57902 7.55109 4.5 7.75 4.5H18.25C18.4489 4.5 18.6397 4.57902 18.7803 4.71967C18.921 4.86032 19 5.05109 19 5.25C19 5.44891 18.921 5.63968 18.7803 5.78033C18.6397 5.92098 18.4489 6 18.25 6H7.75C7.55109 6 7.36032 5.92098 7.21967 5.78033C7.07902 5.63968 7 5.44891 7 5.25ZM4 0.75C4 0.551088 4.07902 0.360322 4.21967 0.21967C4.36032 0.0790178 4.55109 0 4.75 0H21.25C21.4489 0 21.6397 0.0790178 21.7803 0.21967C21.921 0.360322 22 0.551088 22 0.75C22 0.948912 21.921 1.13968 21.7803 1.28033C21.6397 1.42098 21.4489 1.5 21.25 1.5H4.75C4.55109 1.5 4.36032 1.42098 4.21967 1.28033C4.07902 1.13968 4 0.948912 4 0.75Z" fill="black"/>
<path d="M10 9.75C10 9.55109 10.079 9.36032 10.2197 9.21967C10.3603 9.07902 10.5511 9 10.75 9H15.25C15.4489 9 15.6397 9.07902 15.7803 9.21967C15.921 9.36032 16 9.55109 16 9.75C16 9.94891 15.921 10.1397 15.7803 10.2803C15.6397 10.421 15.4489 10.5 15.25 10.5H10.75C10.5511 10.5 10.3603 10.421 10.2197 10.2803C10.079 10.1397 10 9.94891 10 9.75ZM7 5.25C7 5.05109 7.07902 4.86032 7.21967 4.71967C7.36032 4.57902 7.55109 4.5 7.75 4.5H18.25C18.4489 4.5 18.6397 4.57902 18.7803 4.71967C18.921 4.86032 19 5.05109 19 5.25C19 5.44891 18.921 5.63968 18.7803 5.78033C18.6397 5.92098 18.4489 6 18.25 6H7.75C7.55109 6 7.36032 5.92098 7.21967 5.78033C7.07902 5.63968 7 5.44891 7 5.25ZM4 0.75C4 0.551088 4.07902 0.360322 4.21967 0.21967C4.36032 0.0790178 4.55109 0 4.75 0H21.25C21.4489 0 21.6397 0.0790178 21.7803 0.21967C21.921 0.360322 22 0.551088 22 0.75C22 0.948912 21.921 1.13968 21.7803 1.28033C21.6397 1.42098 21.4489 1.5 21.25 1.5H4.75C4.55109 1.5 4.36032 1.42098 4.21967 1.28033C4.07902 1.13968 4 0.948912 4 0.75Z" stroke="black"/>
</g>
<defs>
<filter id="filter0_d_5029_8609" x="0" y="0" width="26" height="18.5" filterUnits="userSpaceOnUse" color-interpolation-filters="sRGB">
<feFlood flood-opacity="0" result="BackgroundImageFix"/>
<feColorMatrix in="SourceAlpha" type="matrix" values="0 0 0 0 0 0 0 0 0 0 0 0 0 0 0 0 0 0 127 0" result="hardAlpha"/>
<feOffset dy="4"/>
<feGaussianBlur stdDeviation="2"/>
<feComposite in2="hardAlpha" operator="out"/>
<feColorMatrix type="matrix" values="0 0 0 0 0 0 0 0 0 0 0 0 0 0 0 0 0 0 0.25 0"/>
<feBlend mode="normal" in2="BackgroundImageFix" result="effect1_dropShadow_5029_8609"/>
<feBlend mode="normal" in="SourceGraphic" in2="effect1_dropShadow_5029_8609" result="shape"/>
</filter>
</defs>
</svg>
