<svg width="26" height="25" viewBox="0 0 26 25" fill="none" xmlns="http://www.w3.org/2000/svg">
<g>
<path d="M10 15.75C10 15.5511 10.079 15.3603 10.2197 15.2197C10.3603 15.079 10.5511 15 10.75 15H15.25C15.4489 15 15.6397 15.079 15.7803 15.2197C15.921 15.3603 16 15.5511 16 15.75C16 15.9489 15.921 16.1397 15.7803 16.2803C15.6397 16.421 15.4489 16.5 15.25 16.5H10.75C10.5511 16.5 10.3603 16.421 10.2197 16.2803C10.079 16.1397 10 15.9489 10 15.75ZM7 11.25C7 11.0511 7.07902 10.8603 7.21967 10.7197C7.36032 10.579 7.55109 10.5 7.75 10.5H18.25C18.4489 10.5 18.6397 10.579 18.7803 10.7197C18.921 10.8603 19 11.0511 19 11.25C19 11.4489 18.921 11.6397 18.7803 11.7803C18.6397 11.921 18.4489 12 18.25 12H7.75C7.55109 12 7.36032 11.921 7.21967 11.7803C7.07902 11.6397 7 11.4489 7 11.25ZM4 6.75C4 6.55109 4.07902 6.36032 4.21967 6.21967C4.36032 6.07902 4.55109 6 4.75 6H21.25C21.4489 6 21.6397 6.07902 21.7803 6.21967C21.921 6.36032 22 6.55109 22 6.75C22 6.94891 21.921 7.13968 21.7803 7.28033C21.6397 7.42098 21.4489 7.5 21.25 7.5H4.75C4.55109 7.5 4.36032 7.42098 4.21967 7.28033C4.07902 7.13968 4 6.94891 4 6.75Z" fill="black"/>
<path d="M10 15.75C10 15.5511 10.079 15.3603 10.2197 15.2197C10.3603 15.079 10.5511 15 10.75 15H15.25C15.4489 15 15.6397 15.079 15.7803 15.2197C15.921 15.3603 16 15.5511 16 15.75C16 15.9489 15.921 16.1397 15.7803 16.2803C15.6397 16.421 15.4489 16.5 15.25 16.5H10.75C10.5511 16.5 10.3603 16.421 10.2197 16.2803C10.079 16.1397 10 15.9489 10 15.75ZM7 11.25C7 11.0511 7.07902 10.8603 7.21967 10.7197C7.36032 10.579 7.55109 10.5 7.75 10.5H18.25C18.4489 10.5 18.6397 10.579 18.7803 10.7197C18.921 10.8603 19 11.0511 19 11.25C19 11.4489 18.921 11.6397 18.7803 11.7803C18.6397 11.921 18.4489 12 18.25 12H7.75C7.55109 12 7.36032 11.921 7.21967 11.7803C7.07902 11.6397 7 11.4489 7 11.25ZM4 6.75C4 6.55109 4.07902 6.36032 4.21967 6.21967C4.36032 6.07902 4.55109 6 4.75 6H21.25C21.4489 6 21.6397 6.07902 21.7803 6.21967C21.921 6.36032 22 6.55109 22 6.75C22 6.94891 21.921 7.13968 21.7803 7.28033C21.6397 7.42098 21.4489 7.5 21.25 7.5H4.75C4.55109 7.5 4.36032 7.42098 4.21967 7.28033C4.07902 7.13968 4 6.94891 4 6.75Z" stroke="black"/>
</g>
<defs>
<filter id="filter0_d_5001_10769" x="0" y="6" width="26" height="18.5" filterUnits="userSpaceOnUse" color-interpolation-filters="sRGB">
<feFlood flood-opacity="0" result="BackgroundImageFix"/>
<feColorMatrix in="SourceAlpha" type="matrix" values="0 0 0 0 0 0 0 0 0 0 0 0 0 0 0 0 0 0 127 0" result="hardAlpha"/>
<feOffset dy="4"/>
<feGaussianBlur stdDeviation="2"/>
<feComposite in2="hardAlpha" operator="out"/>
<feColorMatrix type="matrix" values="0 0 0 0 0 0 0 0 0 0 0 0 0 0 0 0 0 0 0.25 0"/>
<feBlend mode="normal" in2="BackgroundImageFix" result="effect1_dropShadow_5001_10769"/>
<feBlend mode="normal" in="SourceGraphic" in2="effect1_dropShadow_5001_10769" result="shape"/>
</filter>
</defs>
</svg>
