<svg width="12" height="13" viewBox="0 0 12 13" fill="none" xmlns="http://www.w3.org/2000/svg">
<path fill-rule="evenodd" clip-rule="evenodd" d="M11.985 6.29352L11.2575 10.756C11.13 11.791 9.8475 12.166 9 12.166H4.2675C4.1175 12.166 3.9825 12.1285 3.87 12.061L2.79 11.416H1.5C0.705 11.416 0 10.711 0 9.91602V6.91602C0 6.12102 0.705 5.40102 1.5 5.41602H3C3.6825 5.41602 4.0425 5.07852 4.7925 4.25352C5.475 3.50352 5.4525 2.90352 5.265 1.80102C5.205 1.42602 5.31 1.05102 5.58 0.736016C5.8725 0.383516 6.315 0.166016 6.75 0.166016C8.1225 0.166016 9 2.94852 9 3.92352L8.985 4.65852H10.515C11.385 4.65852 11.9775 5.25852 12 6.13602C12 6.21852 11.985 6.29352 11.985 6.29352ZM10.5075 5.40102H9.015C8.49 5.40102 8.2425 5.19102 8.2425 4.67352L8.265 3.90102C8.265 2.94852 7.3875 0.901016 6.765 0.901016C6.39 0.901016 5.955 1.27602 6.015 1.65102C6.2025 2.83602 6.27 3.73602 5.3475 4.75602C4.5825 5.60352 4.02 6.16602 3 6.16602V10.666L4.2525 11.416H9C9.5475 11.416 10.4625 11.1835 10.5 10.666L10.515 10.651L11.265 6.15102C11.2425 5.67102 10.98 5.40102 10.515 5.40102H10.5075Z" fill="black"/>
</svg>
