<svg width="28" height="28" viewBox="0 0 28 28" fill="none" xmlns="http://www.w3.org/2000/svg">
<rect x="1" y="1" width="26" height="26" rx="13" fill="black"/>
<rect x="1" y="1" width="26" height="26" rx="13" stroke="white" stroke-width="2"/>
<path d="M8 10.25C8 9.85218 8.15804 9.47064 8.43934 9.18934C8.72064 8.90804 9.10218 8.75 9.5 8.75H18.5C18.8978 8.75 19.2794 8.90804 19.5607 9.18934C19.842 9.47064 20 9.85218 20 10.25V17.75C20 18.1478 19.842 18.5294 19.5607 18.8107C19.2794 19.092 18.8978 19.25 18.5 19.25H9.5C9.10218 19.25 8.72064 19.092 8.43934 18.8107C8.15804 18.5294 8 18.1478 8 17.75V10.25V10.25ZM8.75 17V17.75C8.75 17.9489 8.82902 18.1397 8.96967 18.2803C9.11032 18.421 9.30109 18.5 9.5 18.5H18.5C18.6989 18.5 18.8897 18.421 19.0303 18.2803C19.171 18.1397 19.25 17.9489 19.25 17.75V15.125L16.4173 13.6647C16.3469 13.6295 16.2673 13.6173 16.1896 13.6298C16.112 13.6423 16.0402 13.679 15.9845 13.7345L13.202 16.517L11.207 15.188C11.135 15.14 11.0486 15.1185 10.9625 15.127C10.8763 15.1354 10.7958 15.1734 10.7345 15.2345L8.75 17ZM12.5 12.125C12.5 11.8266 12.3815 11.5405 12.1705 11.3295C11.9595 11.1185 11.6734 11 11.375 11C11.0766 11 10.7905 11.1185 10.5795 11.3295C10.3685 11.5405 10.25 11.8266 10.25 12.125C10.25 12.4234 10.3685 12.7095 10.5795 12.9205C10.7905 13.1315 11.0766 13.25 11.375 13.25C11.6734 13.25 11.9595 13.1315 12.1705 12.9205C12.3815 12.7095 12.5 12.4234 12.5 12.125Z" fill="#FFFFD3"/>
</svg>
